<svg width="17" height="17" viewBox="0 0 17 17" fill="none" xmlns="http://www.w3.org/2000/svg">
<path fill-rule="evenodd" clip-rule="evenodd" d="M14.1027 2.92914C13.3751 2.19667 12.5093 1.61587 11.5555 1.2204C10.6017 0.824928 9.57899 0.622645 8.5465 0.625269C4.217 0.625269 0.692497 4.14889 0.690747 8.48014C0.690747 9.86439 1.05212 11.2154 1.739 12.4071L0.625122 16.4768L4.78925 15.3839C5.94109 16.0109 7.23155 16.3397 8.543 16.3403H8.5465C12.8751 16.3403 16.3996 12.8166 16.4014 8.48539C16.4043 7.45332 16.2027 6.43089 15.8082 5.4772C15.4136 4.52351 14.834 3.65747 14.1027 2.92914V2.92914ZM8.5465 15.0146H8.54387C7.37445 15.0148 6.22655 14.7001 5.22062 14.1038L4.98262 13.962L2.51162 14.6104L3.1705 12.2015L3.01562 11.9548C2.36181 10.9139 2.0157 9.70933 2.01725 8.48014C2.019 4.88039 4.94762 1.95177 8.54912 1.95177C9.40684 1.94986 10.2564 2.11809 11.0487 2.44671C11.841 2.77534 12.5602 3.25783 13.1647 3.86627C13.7725 4.47181 14.2543 5.1918 14.5821 5.98464C14.91 6.77748 15.0775 7.62744 15.0749 8.48539C15.0731 12.0851 12.1445 15.0146 8.5465 15.0146ZM12.1279 10.1243C11.931 10.0254 10.9667 9.55114 10.7865 9.48552C10.6071 9.41989 10.4767 9.38752 10.3455 9.58352C10.2142 9.77952 9.838 10.2214 9.72337 10.3526C9.60875 10.4839 9.49412 10.4996 9.29812 10.4016C9.10212 10.3036 8.4695 10.0963 7.71962 9.42777C7.136 8.90714 6.74225 8.26489 6.62762 8.06802C6.513 7.87114 6.61537 7.76527 6.71425 7.66727C6.80262 7.57977 6.91025 7.43802 7.00825 7.32339C7.10625 7.20877 7.13862 7.12739 7.20425 6.99614C7.26987 6.86489 7.2375 6.75027 7.18762 6.65227C7.13862 6.55339 6.74575 5.58739 6.58212 5.19452C6.42375 4.81389 6.26187 4.86464 6.14112 4.85939C6.01606 4.85428 5.89091 4.85194 5.76575 4.85239C5.66622 4.85493 5.56829 4.878 5.4781 4.92016C5.38791 4.96232 5.3074 5.02266 5.24162 5.09739C5.06137 5.29427 4.55475 5.76852 4.55475 6.73452C4.55475 7.70052 5.25825 8.63414 5.35625 8.76539C5.45425 8.89664 6.7405 10.8785 8.70925 11.729C9.17825 11.9311 9.544 12.0519 9.82837 12.1429C10.2982 12.2925 10.7261 12.2706 11.0647 12.2208C11.4419 12.1648 12.2259 11.7465 12.3895 11.288C12.5531 10.8295 12.5531 10.4366 12.5041 10.3544C12.4551 10.2721 12.323 10.2223 12.1279 10.1243" fill="#228DA1"/>
</svg>
